<svg id="Capa_1" enable-background="new 0 0 512 512" height="512" viewBox="0 0 512 512" width="512" xmlns="http://www.w3.org/2000/svg"><g><g><path d="m301.536 40.679-24.239-23.358c-11.88-11.448-30.686-11.448-42.566 0l-24.239 23.358c-48.57 46.803-76.009 111.352-76.009 178.802v103.827h243.063v-103.827c-.001-67.45-27.441-131.998-76.01-178.802z" fill="#736e6e"/></g><g><path d="m301.536 40.679-24.239-23.358c-10.314-9.939-25.846-11.243-37.537-3.924 1.775 1.111 3.464 2.416 5.03 3.924l24.239 23.358c48.57 46.803 76.009 111.351 76.009 178.802v103.827h32.507v-103.827c0-67.45-27.44-131.999-76.009-178.802z" fill="#595454"/></g><g><path d="m321.09 303.409h-130.153c-101.425 0-183.645 82.221-183.645 183.645v11.21c0 2.761 2.239 5 5 5h487.443c2.761 0 5-2.239 5-5v-11.21c0-101.425-82.22-183.645-183.645-183.645z" fill="#736e6e"/></g><path d="m321.09 303.409h-39.593c101.424 0 183.645 82.221 183.645 183.645v11.21c0 2.761-2.239 5-5 5h39.593c2.761 0 5-2.239 5-5v-11.21c0-101.424-82.22-183.645-183.645-183.645z" fill="#595454"/><g><path d="m256.072 304.684h-.117c-42.291 0-76.574-34.283-76.574-76.574v-106.346h153.265v106.346c0 42.291-34.283 76.574-76.574 76.574z" fill="#ffcbbe"/></g><g><path d="m308.888 121.764v95.922c0 42.323-34.309 76.632-76.632 76.632-6.308 0-12.432-.778-18.297-2.215 12.075 7.944 26.52 12.58 42.055 12.58 42.323 0 76.632-34.309 76.632-76.632v-106.287z" fill="#fdad9d"/></g><g><path d="m274.291 252.011h-36.556c-4.127 0-7.473-3.346-7.473-7.473s3.346-7.473 7.473-7.473h36.556c4.127 0 7.473 3.346 7.473 7.473s-3.345 7.473-7.473 7.473z" fill="#fb74c4"/></g><g><circle cx="216.42" cy="186.295" fill="#4073c8" r="12.966"/></g><g><circle cx="293.823" cy="186.295" fill="#4073c8" r="12.966"/></g><g><path d="m376.944 202.441c-4.208-61.199-30.946-118.917-75.408-161.762l-24.239-23.358c-11.88-11.448-30.686-11.448-42.566 0l-24.239 23.358c-44.462 42.845-71.201 100.563-75.408 161.762l91.443-30.82c19.129-6.447 39.845-6.447 58.974 0z" fill="#736e6e"/></g><g><path d="m224.738 28.423 24.239 23.358c37.078 35.729 61.817 81.805 71.456 131.614l56.512 19.047c-4.208-61.199-30.946-118.917-75.408-161.762l-24.239-23.358c-11.88-11.448-30.686-11.448-42.566 0l-10.776 10.384c.262.236.525.47.782.717z" fill="#595454"/></g><g><path d="m414.48 285.07h-316.932c-12.703 0-23 10.297-23 23v172.194c0 12.703 10.297 23 23 23h316.932c12.703 0 23-10.297 23-23v-172.194c0-12.702-10.298-23-23-23z" fill="#efe7e4"/></g><g><path d="m414.563 285.07h-14.853v157.507c0 12.657-10.26 22.917-22.917 22.917h-302.245v14.853c0 12.657 10.26 22.917 22.917 22.917h317.098c12.657 0 22.917-10.26 22.917-22.917v-172.36c0-12.657-10.261-22.917-22.917-22.917z" fill="#eadfda"/></g><g><g><path d="m465.107 185.813c-4.127 0-7.473-3.346-7.473-7.473v-45.536h-3.858c-4.127 0-7.473-3.346-7.473-7.473s3.346-7.473 7.473-7.473h11.33c4.127 0 7.473 3.346 7.473 7.473v53.009c.001 4.127-3.345 7.473-7.472 7.473z" fill="#698ed5"/></g></g><g><g><path d="m421.326 236.419c-4.127 0-7.473-3.346-7.473-7.473v-45.536h-3.858c-4.127 0-7.473-3.346-7.473-7.473s3.346-7.473 7.473-7.473h11.33c4.127 0 7.473 3.346 7.473 7.473v53.009c.001 4.127-3.345 7.473-7.472 7.473z" fill="#698ed5"/></g></g><g><g><path d="m39.489 314.657c-4.127 0-7.473-3.346-7.473-7.473v-45.536h-3.858c-4.127 0-7.473-3.346-7.473-7.473s3.346-7.473 7.473-7.473h11.33c4.127 0 7.473 3.346 7.473 7.473v53.009c.001 4.127-3.344 7.473-7.472 7.473z" fill="#698ed5"/></g></g><g><g><path d="m103.394 89.27c-4.127 0-7.473-3.346-7.473-7.473v-45.536h-3.858c-4.127 0-7.473-3.346-7.473-7.473s3.346-7.473 7.473-7.473h11.33c4.127 0 7.473 3.346 7.473 7.473v53.009c0 4.127-3.345 7.473-7.472 7.473z" fill="#698ed5"/></g></g><g><g><path d="m397.184 87.597c-12.573 0-22.802-10.229-22.802-22.802v-24.515c0-12.573 10.229-22.802 22.802-22.802s22.801 10.229 22.801 22.802v24.514c.001 12.574-10.228 22.803-22.801 22.803zm0-55.173c-4.332 0-7.856 3.524-7.856 7.856v24.514c0 4.332 3.524 7.856 7.856 7.856 4.331 0 7.856-3.524 7.856-7.856v-24.514c0-4.331-3.524-7.856-7.856-7.856z" fill="#698ed5"/></g></g><g><g><path d="m489.199 303.758c-12.573 0-22.802-10.228-22.802-22.801v-24.515c0-12.573 10.229-22.801 22.802-22.801s22.801 10.228 22.801 22.801v24.515c0 12.573-10.228 22.801-22.801 22.801zm0-55.172c-4.332 0-7.856 3.524-7.856 7.856v24.515c0 4.331 3.524 7.856 7.856 7.856 4.331 0 7.856-3.524 7.856-7.856v-24.515c-.001-4.332-3.525-7.856-7.856-7.856z" fill="#698ed5"/></g></g><g><g><path d="m22.802 141.843c-12.573 0-22.802-10.228-22.802-22.801v-24.515c0-12.573 10.229-22.801 22.802-22.801s22.802 10.228 22.802 22.801v24.515c0 12.573-10.229 22.801-22.802 22.801zm0-55.172c-4.332 0-7.856 3.524-7.856 7.856v24.515c0 4.331 3.524 7.856 7.856 7.856s7.856-3.524 7.856-7.856v-24.515c0-4.332-3.524-7.856-7.856-7.856z" fill="#698ed5"/></g></g><g><g><path d="m75.441 204.232c-12.573 0-22.801-10.229-22.801-22.802v-24.514c0-12.573 10.228-22.802 22.801-22.802s22.802 10.229 22.802 22.802v24.514c0 12.573-10.229 22.802-22.802 22.802zm0-55.173c-4.331 0-7.856 3.524-7.856 7.856v24.514c0 4.332 3.524 7.856 7.856 7.856s7.856-3.524 7.856-7.856v-24.514c.001-4.331-3.524-7.856-7.856-7.856z" fill="#698ed5"/></g></g></g></svg>