<?xml version="1.0"?>
<svg xmlns="http://www.w3.org/2000/svg" xmlns:xlink="http://www.w3.org/1999/xlink" version="1.1" id="Capa_1" x="0px" y="0px" width="512px" height="512px" viewBox="0 0 419.901 419.901" style="enable-background:new 0 0 419.901 419.901;" xml:space="preserve" class=""><g><g>
	<path d="M335.716,59.54H84.183c-12.103,0-21.949,9.84-21.949,21.942v256.953c0,12.094,9.84,21.939,21.949,21.939h251.533   c12.1,0,21.945-9.84,21.945-21.939V81.482C357.655,69.38,347.815,59.54,335.716,59.54z M209.948,217.772   c0,8.439-4.253,15.771-12.726,22.006c-8.485,6.235-18.35,9.354-29.605,9.354h-38.103c-11.256,0-21.12-3.1-29.605-9.305   c-8.473-6.199-12.727-13.512-12.727-21.945v-13.853h42.189v13.737h38.395V79.244h42.183V217.772z M376.873,0H43.023   C21.248,0,3.589,17.658,3.589,39.437v341.025c0,21.781,17.659,39.439,39.434,39.439h333.856c21.774,0,39.434-17.658,39.434-39.439   V39.437C416.312,17.658,398.653,0,376.873,0z M373.207,338.423c0,20.666-16.818,37.491-37.491,37.491H84.183   c-20.67,0-37.494-16.818-37.494-37.491V81.482c0-20.664,16.818-37.488,37.494-37.488h251.533c20.667,0,37.491,16.818,37.491,37.488   V338.423z" data-original="#000000" class="active-path" data-old_color="#000000" fill="#ffffff"/>
</g></g> 
</svg>