<svg xmlns="http://www.w3.org/2000/svg" width="1448.634" height="545.344" viewBox="0 0 1448.634 545.344">
  <g id="Group_2263" data-name="Group 2263" transform="translate(15.798 -614.614)">
    <g id="Group_2233" data-name="Group 2233" transform="translate(-17.827 586.196)">
      <g id="Group_2234" data-name="Group 2234" transform="translate(2.153 371.708)">
        <path id="Path_163" data-name="Path 163" d="M1448.511,394.586h-332.4c-56.9,0-112.192-16.631-157.212-47.273h0c-16.339-11.121-39.264-10.73-55.1.935l-23.736,17.481c-10.236,7.533-25.436,6.5-34.224-2.364L823.7,341.056c-17.459-17.6-48.515-17.668-66.071-.153h0c-21.206,21.154-51.7,33.261-83.743,33.261H403.4a105.708,105.708,0,0,1-45.059-9.965l-33.316-15.712A133.813,133.813,0,0,0,268.071,335.9H0V529.864H1448.511Z" transform="translate(0 -327.811)" fill="#181819"/>
      </g>
      <path id="Path_4097" data-name="Path 4097" d="M0,0H1448.634V304.213H0Z" transform="translate(2.029 258.832)" fill="#121117"/>
      <g id="Group_1127" data-name="Group 1127" transform="translate(1259.715 28.418)">
        <path id="Path_217" data-name="Path 217" d="M147.15,820.151l33.206-139.575,36.968-10.6L258.4,567.73h23.25S299.92,668.884,299.92,680.576V756.77l24.9,6.909,13.153,76.958Z" transform="translate(-147.15 -567.73)" fill="#121117"/>
        <path id="Path_218" data-name="Path 218" d="M217.334,669.981l-36.968,10.6L147.16,820.151l52.08,5.588c-1.611-11.027-7.631-53.392-5.7-57.727,2.209-4.982,11.069-48.95,11.069-48.95l28.78-46.151L264.39,567.73h-5.97Z" transform="translate(-147.152 -567.73)" fill="#19181f"/>
      </g>
      <g id="Group_1128" data-name="Group 1128" transform="translate(2.153 131.679)">
        <path id="Path_219" data-name="Path 219" d="M375.738,863.236,441.51,749.99l55,3.637,21.284,90.6,35.923,19.008,21.9,32.794L393.994,913.017,362.47,886.471Z" transform="translate(-362.47 -749.99)" fill="#121117"/>
        <path id="Path_220" data-name="Path 220" d="M447.9,907.978h0l-11.744-21.792,36.513-24.84-36.513-51.924,24.362-58.183h0l-19.008-1.25L375.738,863.236,362.47,886.471l31.524,26.546Z" transform="translate(-362.47 -749.99)" fill="#19181f"/>
      </g>
      <g id="Group_1124" data-name="Group 1124" transform="translate(2.153 371.708)">
        <path id="Path_163-2" data-name="Path 163" d="M1448.3,394.586H1115.944c-56.889,0-112.175-16.631-157.189-47.273h0c-16.337-11.121-39.259-10.73-55.093.935l-23.733,17.481c-10.235,7.533-25.432,6.5-34.219-2.364l-22.13-22.31c-17.457-17.6-48.508-17.668-66.062-.153h0c-21.2,21.154-51.694,33.261-83.731,33.261H403.342A105.679,105.679,0,0,1,358.29,364.2l-33.311-15.712A133.777,133.777,0,0,0,268.032,335.9H0V529.864H1448.3Z" transform="translate(0 -327.811)" fill="#181819"/>
      </g>
      <g id="Group_2235" data-name="Group 2235" transform="translate(2.153 371.708)">
        <path id="Path_163-3" data-name="Path 163" d="M1448.511,394.586h-332.4c-56.9,0-112.192-16.631-157.212-47.273h0c-16.339-11.121-39.264-10.73-55.1.935l-23.736,17.481c-10.236,7.533-25.436,6.5-34.224-2.364L823.7,341.056c-17.459-17.6-48.515-17.668-66.071-.153h0c-21.206,21.154-51.7,33.261-83.743,33.261H403.4a105.708,105.708,0,0,1-45.059-9.965l-33.316-15.712A133.813,133.813,0,0,0,268.071,335.9H0V529.864H1448.511Z" transform="translate(0 -327.811)" fill="#19181f"/>
      </g>
    </g>
  </g>
</svg>
